<svg width="28" height="38" viewBox="0 0 28 38" fill="none" xmlns="http://www.w3.org/2000/svg">
<path d="M26.7675 8.07458C26.6736 7.92194 26.5562 7.79916 26.4236 7.71492C26.291 7.63068 26.1464 7.58704 26 7.58707H5.835L5.22375 3.0245C5.14003 2.39827 4.89723 1.83183 4.53767 1.42394C4.17812 1.01605 3.72462 0.792572 3.25625 0.79248H1C0.734784 0.79248 0.48043 0.935652 0.292893 1.1905C0.105357 1.44534 0 1.79099 0 2.1514C0 2.51181 0.105357 2.85745 0.292893 3.1123C0.48043 3.36715 0.734784 3.51032 1 3.51032H3.25L6.445 27.3406C6.53911 28.0474 6.76895 28.7078 7.11125 29.255C6.63881 29.8547 6.29781 30.6204 6.12607 31.4674C5.95433 32.3143 5.95856 33.2093 6.13829 34.0532C6.31801 34.897 6.66622 35.6568 7.14428 36.2481C7.62235 36.8395 8.2116 37.2394 8.8467 37.4034C9.48179 37.5675 10.1379 37.4893 10.7423 37.1776C11.3467 36.8658 11.8758 36.3327 12.2708 35.6373C12.6658 34.9419 12.9114 34.1114 12.9804 33.2379C13.0493 32.3644 12.9388 31.4821 12.6613 30.6887H18.3388C18.115 31.3251 17.9993 32.0217 18 32.7271C18 33.6678 18.2053 34.5873 18.5899 35.3695C18.9744 36.1516 19.5211 36.7612 20.1606 37.1212C20.8001 37.4812 21.5039 37.5754 22.1828 37.3919C22.8617 37.2084 23.4854 36.7554 23.9749 36.0902C24.4644 35.425 24.7977 34.5776 24.9327 33.655C25.0678 32.7323 24.9985 31.776 24.7336 30.9069C24.4687 30.0379 24.0201 29.295 23.4445 28.7724C22.8689 28.2498 22.1922 27.9708 21.5 27.9708H9.39625C9.16206 27.9708 8.93532 27.8591 8.75554 27.6551C8.57576 27.4512 8.45436 27.168 8.4125 26.8548L8.01625 23.8941H22.5163C23.2188 23.894 23.8991 23.5587 24.4384 22.9469C24.9777 22.3351 25.3419 21.4854 25.4675 20.5461L26.9875 9.1889C27.0132 8.9926 27.0069 8.79101 26.9688 8.59844C26.9308 8.40586 26.8621 8.22702 26.7675 8.07458ZM11 32.7271C11 33.1302 10.912 33.5243 10.7472 33.8595C10.5824 34.1947 10.3481 34.456 10.074 34.6103C9.79994 34.7646 9.49834 34.8049 9.20736 34.7263C8.91639 34.6476 8.64912 34.4535 8.43934 34.1684C8.22956 33.8833 8.0867 33.5201 8.02882 33.1247C7.97094 32.7293 8.00065 32.3195 8.11418 31.947C8.22771 31.5745 8.41997 31.2562 8.66665 31.0322C8.91332 30.8082 9.20333 30.6887 9.5 30.6887C9.89782 30.6887 10.2794 30.9034 10.5607 31.2857C10.842 31.668 11 32.1864 11 32.7271ZM23 32.7271C23 33.1302 22.912 33.5243 22.7472 33.8595C22.5824 34.1947 22.3481 34.456 22.074 34.6103C21.7999 34.7646 21.4983 34.8049 21.2074 34.7263C20.9164 34.6476 20.6491 34.4535 20.4393 34.1684C20.2296 33.8833 20.0867 33.5201 20.0288 33.1247C19.9709 32.7293 20.0007 32.3195 20.1142 31.947C20.2277 31.5745 20.42 31.2562 20.6666 31.0322C20.9133 30.8082 21.2033 30.6887 21.5 30.6887C21.8978 30.6887 22.2794 30.9034 22.5607 31.2857C22.842 31.668 23 32.1864 23 32.7271ZM23.5 20.0602C23.458 20.3742 23.3361 20.6581 23.1555 20.8622C22.975 21.0662 22.7473 21.1774 22.5125 21.1763H7.6525L6.19875 10.3049H24.8013L23.5 20.0602Z" fill="black"/>
</svg>
