<svg width="26" height="36" viewBox="0 0 26 36" fill="none" xmlns="http://www.w3.org/2000/svg">
<path d="M13 0.886841C10.4288 0.886841 7.91543 1.89249 5.77759 3.77661C3.63975 5.66072 1.97351 8.3387 0.989572 11.4719C0.0056327 14.605 -0.251811 18.0527 0.249797 21.3789C0.751405 24.705 1.98953 27.7603 3.80762 30.1583C5.6257 32.5564 7.94208 34.1894 10.4638 34.8511C12.9856 35.5127 15.5995 35.1731 17.9749 33.8753C20.3503 32.5775 22.3807 30.3797 23.8091 27.56C25.2376 24.7402 26 21.425 26 18.0337C25.9964 13.4875 24.6256 9.12895 22.1884 5.91434C19.7512 2.69972 16.4467 0.891642 13 0.886841ZM6.26001 29.4924C6.98342 28.0001 7.98001 26.772 9.15791 25.9213C10.3358 25.0707 11.6571 24.6248 13 24.6248C14.3429 24.6248 15.6642 25.0707 16.8421 25.9213C18.02 26.772 19.0166 28.0001 19.74 29.4924C17.8129 31.4692 15.4413 32.5424 13 32.5424C10.5587 32.5424 8.18709 31.4692 6.26001 29.4924ZM9.00001 16.7147C9.00001 15.6712 9.2346 14.6512 9.67413 13.7835C10.1137 12.9159 10.7384 12.2397 11.4693 11.8404C12.2002 11.441 13.0044 11.3365 13.7804 11.5401C14.5563 11.7437 15.269 12.2462 15.8284 12.984C16.3878 13.7219 16.7688 14.662 16.9231 15.6854C17.0775 16.7088 16.9983 17.7697 16.6955 18.7337C16.3928 19.6978 15.8801 20.5218 15.2223 21.1015C14.5645 21.6812 13.7911 21.9907 13 21.9907C11.9391 21.9907 10.9217 21.4348 10.1716 20.4454C9.42143 19.4559 9.00001 18.114 9.00001 16.7147ZM21.22 27.6639C20.1047 25.5323 18.5365 23.8831 16.7125 22.9238C17.6923 21.906 18.4072 20.5107 18.7579 18.9321C19.1086 17.3534 19.0776 15.6699 18.6693 14.1155C18.2609 12.5612 17.4955 11.2133 16.4794 10.2594C15.4634 9.30544 14.2472 8.79282 13 8.79282C11.7528 8.79282 10.5366 9.30544 9.52058 10.2594C8.50452 11.2133 7.73909 12.5612 7.33074 14.1155C6.92238 15.6699 6.8914 17.3534 7.24209 18.9321C7.59279 20.5107 8.30774 21.906 9.28751 22.9238C7.46353 23.8831 5.89529 25.5323 4.78001 27.6639C3.37072 25.5736 2.4496 22.9905 2.12756 20.2257C1.80553 17.4608 2.09631 14.6322 2.9649 12.0803C3.83349 9.52836 5.24285 7.36205 7.02326 5.84217C8.80368 4.3223 10.8792 3.51368 13 3.51368C15.1208 3.51368 17.1963 4.3223 18.9768 5.84217C20.7572 7.36205 22.1665 9.52836 23.0351 12.0803C23.9037 14.6322 24.1945 17.4608 23.8724 20.2257C23.5504 22.9905 22.6293 25.5736 21.22 27.6639Z" fill="black"/>
</svg>
