<svg width="1092" height="1248" viewBox="0 0 1092 1248" fill="none" xmlns="http://www.w3.org/2000/svg">
<path d="M652.931 1013.51H711.403C719.156 1013.51 726.593 1010.43 732.075 1004.94C737.558 999.46 740.638 992.023 740.638 984.27V458.026C740.638 450.273 737.558 442.836 732.075 437.354C726.593 431.871 719.156 428.791 711.403 428.791H652.931C645.177 428.791 637.741 431.871 632.258 437.354C626.776 442.836 623.695 450.273 623.695 458.026V984.27C623.695 992.023 626.776 999.46 632.258 1004.94C637.741 1010.43 645.177 1013.51 652.931 1013.51ZM1052.49 194.905H851.71L768.875 56.7661C758.48 39.4443 743.774 25.1108 726.192 15.1625C708.609 5.21425 688.75 -0.00960733 668.548 1.32644e-05H422.919C402.726 -0.00119079 382.876 5.22667 365.303 15.1746C347.73 25.1224 333.032 39.4513 322.641 56.7661L239.757 194.905H38.981C28.6426 194.905 18.7276 199.012 11.4173 206.322C4.10691 213.633 0 223.547 0 233.886L0 272.867C0 283.205 4.10691 293.12 11.4173 300.431C18.7276 307.741 28.6426 311.848 38.981 311.848H77.9619V1130.45C77.9619 1161.46 90.2827 1191.21 112.214 1213.14C134.145 1235.07 163.89 1247.39 194.905 1247.39H896.562C927.577 1247.39 957.322 1235.07 979.253 1213.14C1001.18 1191.21 1013.51 1161.46 1013.51 1130.45V311.848H1052.49C1062.82 311.848 1072.74 307.741 1080.05 300.431C1087.36 293.12 1091.47 283.205 1091.47 272.867V233.886C1091.47 223.547 1087.36 213.633 1080.05 206.322C1072.74 199.012 1062.82 194.905 1052.49 194.905ZM418.656 124.033C419.958 121.864 421.802 120.071 424.005 118.828C426.209 117.585 428.697 116.936 431.227 116.943H660.24C662.766 116.94 665.249 117.592 667.448 118.834C669.647 120.077 671.486 121.868 672.787 124.033L715.325 194.905H376.142L418.656 124.033ZM896.562 1130.45H194.905V311.848H896.562V1130.45ZM380.064 1013.51H438.536C446.29 1013.51 453.726 1010.43 459.209 1004.94C464.691 999.46 467.772 992.023 467.772 984.27V458.026C467.772 450.273 464.691 442.836 459.209 437.354C453.726 431.871 446.29 428.791 438.536 428.791H380.064C372.311 428.791 364.874 431.871 359.392 437.354C353.909 442.836 350.829 450.273 350.829 458.026V984.27C350.829 992.023 353.909 999.46 359.392 1004.94C364.874 1010.43 372.311 1013.51 380.064 1013.51Z" fill="black"/>
</svg>
