<svg width="314" height="314" viewBox="0 0 314 314" fill="none" xmlns="http://www.w3.org/2000/svg">
<path d="M10.9943 313.22C8.08199 313.22 5.31485 312.055 3.27623 310.016C0.509523 307.249 -0.654678 303.172 0.364633 299.386L18.7124 230.801C6.48065 208.085 0.0731101 182.456 0.0731101 156.537C0.0731101 70.1869 70.26 0 156.61 0C242.96 0 313.147 70.1869 313.147 156.537C313.147 242.887 242.96 313.074 156.61 313.074C130.253 313.074 104.48 306.521 81.4729 293.998L13.9068 312.783C12.8875 313.074 12.0136 313.22 10.9943 313.22ZM82.9286 271.428C84.8216 271.428 86.7148 272.012 88.4621 272.885C108.994 284.971 132.583 291.377 156.61 291.377C230.874 291.377 291.304 230.946 291.304 156.682C291.304 82.4188 230.874 21.9882 156.61 21.9882C82.3461 21.9882 21.9155 82.4188 21.9155 156.682C21.9155 180.418 28.1768 203.571 39.9717 223.957C41.4279 226.432 41.865 229.49 41.137 232.257L26.5754 286.717L80.1619 271.865C81.0356 271.573 82.0549 271.428 82.9286 271.428Z" fill="black"/>
<path d="M196.51 240.551C187.482 240.551 178.162 238.512 168.406 234.29C159.232 230.358 150.058 225.116 141.176 218.563C132.439 212.156 123.849 204.875 115.985 197.012C108.122 189.003 100.841 180.557 94.4334 171.82C87.8807 162.647 82.6386 153.618 78.8525 144.736C74.7753 135.125 72.7368 125.66 72.7368 116.632C72.7368 110.225 73.9015 104.109 76.0857 98.4299C78.4155 92.4596 82.2017 87.0717 87.1526 82.412C96.4721 73.2382 109.869 69.8893 120.499 74.9859C124.14 76.5876 127.198 79.2087 129.528 82.7035L146.418 106.439C148.165 108.768 149.477 111.244 150.497 113.719C151.662 116.632 152.39 119.544 152.39 122.311C152.39 126.097 151.369 129.883 149.33 133.232C148.02 135.416 146.127 138.037 143.651 140.513L141.758 142.552C142.632 143.716 143.651 145.173 145.253 146.92C148.311 150.415 151.66 154.201 155.301 157.841C158.941 161.336 162.581 164.831 166.222 167.889C167.969 169.345 169.427 170.51 170.592 171.238L172.629 169.199C175.25 166.578 177.873 164.54 180.494 163.229C185.299 160.171 192.724 159.443 199.277 162.21C201.607 163.083 203.936 164.394 206.412 166.141L230.731 183.324C234.08 185.654 236.7 188.857 238.447 192.498C239.903 196.138 240.487 199.342 240.487 202.691C240.487 207.059 239.467 211.282 237.574 215.359C235.681 219.146 233.496 222.495 230.875 225.553C226.216 230.649 220.829 234.435 215.005 236.911C209.18 239.386 202.917 240.551 196.51 240.551ZM109.869 94.6437C108.995 94.6437 106.083 94.6437 102.443 98.2841C99.6763 100.905 97.7829 103.672 96.4724 106.73C95.1618 109.788 94.5792 113.283 94.5792 116.778C94.5792 122.894 96.0352 129.446 98.9475 136.436C102.005 143.716 106.52 151.434 112.053 159.152C117.732 166.869 124.14 174.587 131.275 181.722C138.411 188.712 145.981 195.264 153.844 201.089C161.416 206.623 169.136 210.991 176.853 214.34C187.92 219.146 198.112 220.31 206.412 216.816C209.324 215.651 211.945 213.612 214.566 210.991C215.877 209.535 216.898 208.079 217.771 206.186C218.208 205.166 218.498 204.001 218.498 202.982C218.498 202.691 218.498 202.254 218.061 201.38L193.743 184.489C192.724 183.761 191.705 183.178 190.831 182.887C190.248 183.178 189.376 183.615 187.774 185.217L182.241 190.75C178.018 194.973 171.32 196.138 165.932 194.245L163.311 193.08C159.962 191.333 156.174 188.712 151.951 185.071C147.874 181.577 143.944 177.936 139.721 173.859C135.644 169.636 132.004 165.704 128.509 161.627C124.722 157.113 122.101 153.473 120.354 150.415L118.752 146.629C118.315 145.173 118.169 143.571 118.169 142.115C118.169 138.037 119.626 134.397 122.392 131.485L127.926 125.806C129.528 124.204 130.111 123.33 130.402 122.748C129.965 121.729 129.382 120.855 128.654 119.835L111.616 95.8089L109.869 94.6437Z" fill="black"/>
</svg>
