<svg width="314" height="314" viewBox="0 0 314 314" fill="none" xmlns="http://www.w3.org/2000/svg">
<path fill-rule="evenodd" clip-rule="evenodd" d="M92.5951 1.56102C109.296 0.795521 114.62 0.621582 157.147 0.621582C199.682 0.621582 204.997 0.804203 221.689 1.56102C238.364 2.31784 249.752 4.97091 259.711 8.84169C270.157 12.7747 279.62 18.937 287.442 26.8999C295.406 34.7204 301.569 44.184 305.5 54.6307C309.37 64.5905 312.015 75.977 312.781 92.6432C313.547 109.344 313.72 114.668 313.72 157.195C313.72 199.722 313.538 205.045 312.781 221.747C312.024 238.413 309.37 249.8 305.5 259.759C301.499 270.05 296.14 278.791 287.442 287.49C279.621 295.454 270.157 301.617 259.711 305.548C249.752 309.419 238.364 312.063 221.699 312.829C204.997 313.595 199.674 313.768 157.147 313.768C114.62 313.768 109.296 313.586 92.5951 312.829C75.9289 312.072 64.5424 309.419 54.5826 305.548C44.2922 301.547 35.5503 296.188 26.8518 287.49C18.8875 279.67 12.7247 270.205 8.79359 259.759C4.92281 249.8 2.27843 238.413 1.51293 221.747C0.747425 205.045 0.573486 199.73 0.573486 157.195C0.573486 114.659 0.756108 109.344 1.51293 92.652C2.26975 75.977 4.92281 64.5905 8.79359 54.6307C12.7266 44.1847 18.8889 34.7216 26.8518 26.8999C34.6722 18.9355 44.1358 12.7728 54.5826 8.84169C64.5424 4.97091 75.9289 2.32652 92.5951 1.56102ZM220.42 29.7442C203.91 28.9961 198.952 28.8308 157.147 28.8308C115.342 28.8308 110.384 28.9961 93.8739 29.7442C78.608 30.4401 70.3183 32.9887 64.8033 35.1373C57.4966 37.973 52.2774 41.3654 46.7974 46.8455C41.3261 52.3255 37.9249 57.5447 35.0892 64.8514C32.9406 70.3664 30.392 78.6561 29.6961 93.922C28.948 110.432 28.7827 115.39 28.7827 157.195C28.7827 199 28.948 203.958 29.6961 220.468C30.392 235.734 32.9406 244.024 35.0892 249.539C37.5976 256.34 41.5984 262.492 46.7974 267.545C51.849 272.743 58.0019 276.745 64.8033 279.253C70.3183 281.402 78.608 283.95 93.8739 284.646C110.384 285.394 115.333 285.56 157.147 285.56C198.961 285.56 203.91 285.394 220.42 284.646C235.686 283.95 243.975 281.402 249.491 279.253C256.797 276.417 262.017 273.025 267.497 267.545C272.695 262.493 276.696 256.34 279.204 249.539C281.354 244.024 283.902 235.734 284.598 220.468C285.346 203.958 285.511 199 285.511 157.195C285.511 115.39 285.346 110.432 284.598 93.922C283.902 78.6561 281.354 70.3664 279.204 64.8514C276.369 57.5447 272.977 52.3255 267.497 46.8455C262.017 41.3742 256.797 37.973 249.491 35.1373C243.975 32.9887 235.686 30.4401 220.42 29.7442ZM137.155 205.461C143.494 208.087 150.286 209.438 157.147 209.438C171.004 209.438 184.291 203.934 194.088 194.136C203.887 184.339 209.391 171.05 209.391 157.195C209.391 143.34 203.887 130.051 194.088 120.253C184.291 110.456 171.004 104.952 157.147 104.952C150.286 104.952 143.494 106.303 137.155 108.928C130.816 111.554 125.057 115.402 120.206 120.253C115.354 125.105 111.506 130.864 108.881 137.202C106.255 143.54 104.904 150.334 104.904 157.195C104.904 164.056 106.255 170.85 108.881 177.188C111.506 183.526 115.354 189.285 120.206 194.136C125.057 198.987 130.816 202.836 137.155 205.461ZM100.24 100.288C115.333 85.1951 135.803 76.7161 157.147 76.7161C178.492 76.7161 198.962 85.1951 214.054 100.288C229.146 115.381 237.626 135.851 237.626 157.195C237.626 178.539 229.146 199.009 214.054 214.102C198.962 229.195 178.492 237.674 157.147 237.674C135.803 237.674 115.333 229.195 100.24 214.102C85.1476 199.009 76.6686 178.539 76.6686 157.195C76.6686 135.851 85.1476 115.381 100.24 100.288ZM255.471 88.7067C259.038 85.1389 261.042 80.3002 261.042 75.2549C261.042 70.2094 259.038 65.3707 255.471 61.8031C251.902 58.2355 247.064 56.2312 242.018 56.2312C236.974 56.2312 232.134 58.2355 228.567 61.8031C224.999 65.3707 222.995 70.2094 222.995 75.2549C222.995 80.3002 224.999 85.1389 228.567 88.7067C232.134 92.2743 236.974 94.2785 242.018 94.2785C247.064 94.2785 251.902 92.2743 255.471 88.7067Z" fill="black"/>
</svg>
